<?xml version="1.0" encoding="UTF-8"?>
<svg version="1.1" xmlns="http://www.w3.org/2000/svg" width="707" height="787">
<path d="M0 0 C2 2 2 2 2.24954766 4.71358442 C2.24933029 5.88086089 2.24911292 7.04813735 2.24888897 8.25078583 C2.25149625 8.90235295 2.25410354 9.55392007 2.25678983 10.22523165 C2.26313536 12.43015766 2.25509844 14.63480374 2.24723816 16.83972168 C2.24882506 18.42843752 2.25128748 20.01715268 2.25455457 21.60586596 C2.26099598 25.98971095 2.25487795 30.37346423 2.24679029 34.75730324 C2.24023229 39.48068165 2.24515826 44.20404949 2.24867249 48.9274292 C2.25372797 58.19901326 2.24805218 67.47056178 2.23882218 76.74214143 C2.22843305 87.56985847 2.22850869 98.39756784 2.22899476 109.22528893 C2.22949627 128.59160633 2.22031907 147.95790729 2.20581055 167.32421875 C2.19179954 186.03646139 2.18463641 204.74868953 2.18530273 223.4609375 C2.18534269 224.60756739 2.18538265 225.75419727 2.18542381 226.93557352 C2.18546417 228.08036662 2.18550452 229.22515973 2.1855461 230.40464354 C2.18624133 251.77023754 2.18030514 273.13582547 2.17139288 294.50141749 C2.16840603 302.00883399 2.16731677 309.51624935 2.16686058 317.02366638 C2.16616865 326.23262466 2.16157333 335.44157273 2.15252777 344.6505267 C2.14799671 349.33006297 2.14483069 354.00958646 2.14612198 358.68912506 C2.14976882 377.00625536 2.06758886 395.32305961 1.72677634 413.63739973 C1.69529393 415.40838802 1.66799689 417.17945727 1.64553412 418.95058292 C1.43679482 434.63411872 0.01538035 450.3027752 -4.8125 465.3125 C-5.07184326 466.14096436 -5.33118652 466.96942871 -5.59838867 467.82299805 C-13.91902793 493.78570593 -29.67115755 517.79448386 -51 535 C-51.90878906 535.74636719 -52.81757812 536.49273438 -53.75390625 537.26171875 C-59.88250684 542.14772448 -66.19216696 546.52772707 -72.875 550.625 C-73.55675293 551.04362305 -74.23850586 551.46224609 -74.94091797 551.89355469 C-87.06376039 559.18014188 -99.47851467 565.29966156 -112.5625 570.625 C-114.06538609 571.24243202 -115.56806417 571.86037052 -117.07055664 572.47875977 C-120.43610803 573.86205979 -123.80391662 575.23970867 -127.17285156 576.61474609 C-132.61710537 578.8393193 -138.05177812 581.08672534 -143.48591614 583.33587646 C-148.40865532 585.37146953 -153.33480147 587.39872446 -158.26168823 589.42425537 C-160.70805152 590.43136519 -163.15330978 591.44116351 -165.59744263 592.45367432 C-169.04983404 593.88252764 -172.50668748 595.30001044 -175.96484375 596.71484375 C-177.52662857 597.36529411 -177.52662857 597.36529411 -179.1199646 598.02888489 C-180.5686644 598.61774727 -180.5686644 598.61774727 -182.04663086 599.21850586 C-182.88624863 599.56409042 -183.72586639 599.90967499 -184.59092712 600.26573181 C-187.23083195 601.07035593 -189.25650943 601.28003879 -192 601 C-194 599 -194 599 -194.24954766 596.19566321 C-194.24933029 594.98542873 -194.24911292 593.77519424 -194.24888897 592.52828598 C-194.25149625 591.85286322 -194.25410354 591.17744045 -194.25678983 590.48155034 C-194.26313611 588.19559513 -194.25509808 585.90990983 -194.24723816 583.6239624 C-194.248825 581.97719669 -194.25128736 580.33043162 -194.25455457 578.68366838 C-194.26099602 574.13983827 -194.25487808 569.59609664 -194.24679029 565.05227232 C-194.24023302 560.15734278 -194.24515789 555.26242346 -194.24867249 550.36749268 C-194.25372676 540.76304739 -194.24805492 531.15863641 -194.23882218 521.55419537 C-194.22844148 510.35164412 -194.22850841 499.14910031 -194.22899476 487.94654515 C-194.22949613 467.92757235 -194.22031972 447.90861548 -194.20581055 427.88964844 C-194.19177457 408.5133434 -194.18463749 389.13705239 -194.18530273 369.76074219 C-194.18536267 367.97685418 -194.18536267 367.97685418 -194.18542381 366.15692803 C-194.18546417 364.96963814 -194.18550452 363.78234826 -194.1855461 362.55907989 C-194.18623935 340.4662539 -194.18031958 318.37343383 -194.17139288 296.28060977 C-194.16839477 288.49704766 -194.16731543 280.71348664 -194.16686058 272.92992401 C-194.16617228 263.40441771 -194.16162457 253.87892136 -194.15252777 244.35341927 C-194.14796506 239.50524749 -194.14484327 234.65708826 -194.14612198 229.80891418 C-194.1495786 212.568247 -194.11374209 195.33735102 -193.56513977 178.10406494 C-193.52803491 176.91283453 -193.49093005 175.72160411 -193.45270079 174.49427581 C-191.99649169 134.6800881 -175.65895669 98.80416049 -147.05078125 71.11328125 C-145.08106673 69.34177699 -143.06196505 67.66334263 -141 66 C-140.09121094 65.25363281 -139.18242187 64.50726563 -138.24609375 63.73828125 C-132.11749316 58.85227552 -125.80783304 54.47227293 -119.125 50.375 C-118.44324707 49.95637695 -117.76149414 49.53775391 -117.05908203 49.10644531 C-104.93623961 41.81985812 -92.52148533 35.70033844 -79.4375 30.375 C-77.93461391 29.75756798 -76.43193583 29.13962948 -74.92944336 28.52124023 C-71.56389197 27.13794021 -68.19608338 25.76029133 -64.82714844 24.38525391 C-59.38289463 22.1606807 -53.94822188 19.91327466 -48.51408386 17.66412354 C-43.59134468 15.62853047 -38.66519853 13.60127554 -33.73831177 11.57574463 C-31.29194848 10.56863481 -28.84669022 9.55883649 -26.40255737 8.54632568 C-22.95016596 7.11747236 -19.49331252 5.69998956 -16.03515625 4.28515625 C-14.47337143 3.63470589 -14.47337143 3.63470589 -12.8800354 2.97111511 C-11.4313356 2.38225273 -11.4313356 2.38225273 -9.95336914 1.78149414 C-9.11375137 1.43590958 -8.27413361 1.09032501 -7.40907288 0.73426819 C-4.76916805 -0.07035593 -2.74349057 -0.28003879 0 0 Z " fill="#3399FF" transform="translate(566,84)"/>
<path d="M0 0 C5.64297977 0.31305356 10.35552843 2.11212611 15.5 4.25390625 C16.31673691 4.58643906 17.13347382 4.91897186 17.97496033 5.26158142 C20.65318344 6.35422111 23.32660222 7.45811243 26 8.5625 C27.8728668 9.33006534 29.74599901 10.09698339 31.61938477 10.86328125 C35.49027788 12.44794996 39.3592574 14.03717609 43.22705078 15.62939453 C48.73633845 17.89521896 54.25581324 20.13530988 59.77734375 22.37109375 C62.34560184 23.41403487 64.91351276 24.45782392 67.48120117 25.50216675 C69.08506786 26.15371268 70.68953481 26.80378351 72.29467773 27.45217896 C87.34767508 33.53941174 102.6929433 39.77044089 116.4375 48.5 C117.17355469 48.95938965 117.90960938 49.4187793 118.66796875 49.89208984 C128.02723301 55.8091247 136.62608063 62.4140749 144.74609375 69.95703125 C146.31104887 71.3755261 147.92980725 72.73598036 149.5859375 74.046875 C153.21478547 76.98283614 156.03913978 80.40549265 159 84 C159.76570312 84.928125 160.53140625 85.85625 161.3203125 86.8125 C182.4518295 113.3097 192.7329131 144.57405971 193.61592102 178.34625244 C193.67230412 180.26392437 193.67230412 180.26392437 193.72982627 182.22033715 C194.19096775 199.01193059 194.14981378 215.81155191 194.14538372 232.6080184 C194.14517612 237.54009361 194.15073118 242.47216333 194.15544128 247.40423584 C194.1636647 257.01415126 194.16649208 266.62406054 194.16705366 276.2339792 C194.16753168 284.03931068 194.16960051 291.84464016 194.17275429 299.64997101 C194.18152886 321.8189577 194.18617731 343.98793959 194.18542381 366.15692803 C194.18538386 367.3461867 194.1853439 368.53544537 194.18530273 369.76074219 C194.18526185 370.95146089 194.18522097 372.14217959 194.18517885 373.36898068 C194.18477063 392.7523769 194.19439258 412.13575387 194.2084411 431.51914451 C194.22277957 451.46030411 194.22971306 471.40145429 194.22884732 491.34261918 C194.22851506 502.52386942 194.23127686 513.70509932 194.24202538 524.88634491 C194.25109578 534.38123527 194.25333336 543.87609602 194.24651595 553.37098882 C194.24323656 558.21590336 194.24324549 563.06076094 194.2518692 567.90567017 C194.25966996 572.33329173 194.25836956 576.76081053 194.24958507 581.18842939 C194.24803609 582.79590262 194.24991809 584.4033833 194.25544515 586.01084778 C194.26242534 588.18345449 194.25727567 590.35569253 194.24888897 592.52828598 C194.24921502 594.34363771 194.24921502 594.34363771 194.24954766 596.19566321 C194 599 194 599 192 601 C186.35702023 600.68694644 181.64447157 598.88787389 176.5 596.74609375 C175.68326309 596.41356094 174.86652618 596.08102814 174.02503967 595.73841858 C171.34681656 594.64577889 168.67339778 593.54188757 166 592.4375 C164.1271332 591.66993466 162.25400099 590.90301661 160.38061523 590.13671875 C156.50972212 588.55205004 152.6407426 586.96282391 148.77294922 585.37060547 C143.26366155 583.10478104 137.74418676 580.86469012 132.22265625 578.62890625 C129.65439816 577.58596513 127.08648724 576.54217608 124.51879883 575.49783325 C122.91493214 574.84628732 121.31046519 574.19621649 119.70532227 573.54782104 C104.65232492 567.46058826 89.3070567 561.22955911 75.5625 552.5 C74.82644531 552.04061035 74.09039062 551.5812207 73.33203125 551.10791016 C63.97276699 545.1908753 55.37391937 538.5859251 47.25390625 531.04296875 C45.68895113 529.6244739 44.07019275 528.26401964 42.4140625 526.953125 C38.78521453 524.01716386 35.96086022 520.59450735 33 517 C31.85144531 515.6078125 31.85144531 515.6078125 30.6796875 514.1875 C7.86709601 485.58236961 -0.99319286 452.78566475 -1.61592102 416.67004395 C-1.65361127 414.81127507 -1.69158565 412.95251193 -1.72982627 411.09375429 C-2.08859017 392.73461166 -2.15045061 374.37578506 -2.14538372 356.01371002 C-2.14517402 351.23726634 -2.15074959 346.46082812 -2.15544128 341.68438721 C-2.16361852 332.404984 -2.16648979 323.12558714 -2.16705366 313.84618062 C-2.16753344 306.3100149 -2.16961072 298.77385123 -2.17275429 291.23768616 C-2.18151192 269.80364757 -2.18617937 248.36961391 -2.18542381 226.93557352 C-2.18538386 225.78894363 -2.1853439 224.64231375 -2.18530273 223.4609375 C-2.18526185 222.31289219 -2.18522097 221.16484689 -2.18517885 219.98201233 C-2.1847699 201.25896444 -2.19441449 182.53593641 -2.2084411 163.81289428 C-2.22277822 144.52224188 -2.22971331 125.23159921 -2.22884732 105.94094133 C-2.22851527 95.13545922 -2.23126836 84.32999816 -2.24202538 73.52452087 C-2.25109336 64.3593013 -2.25333494 55.19411241 -2.24651595 46.02889031 C-2.24323689 41.35401398 -2.24324463 36.67919669 -2.2518692 32.00432587 C-2.25967003 27.73261736 -2.25836957 23.46101536 -2.24958507 19.18930966 C-2.24803625 17.6387223 -2.24991751 16.08812724 -2.25544515 14.53754896 C-2.26242626 12.4418293 -2.25727506 10.34649175 -2.24888897 8.25078583 C-2.24910634 7.08350936 -2.24932371 5.9162329 -2.24954766 4.71358442 C-2 2 -2 2 0 0 Z " fill="#3399FF" transform="translate(141,84)"/>
<path d="M0 0 C0.87828942 20.65001795 -1.4205911 40.0530388 -4.74945068 60.36791992 C-5.25046024 63.46240508 -5.72779907 66.56034913 -6.20523262 69.65854454 C-12.60776191 111.09435397 -22.28479774 149.21117638 -51 181 C-51.69351563 181.77730469 -52.38703125 182.55460938 -53.1015625 183.35546875 C-89.91881911 222.37607469 -145.45807277 231.75722724 -196.26025391 237.00390625 C-200.22541463 237.41655151 -204.1887804 237.8457682 -208.15234375 238.2734375 C-214.86215365 238.99572356 -221.57360211 239.7008218 -228.28610897 240.39754677 C-232.15511401 240.80106237 -236.02096403 241.22491202 -239.88500977 241.67333984 C-249.53503539 242.78477676 -258.97415647 243.25798943 -268.6875 243.125 C-269.98494141 243.11597656 -271.28238281 243.10695313 -272.61914062 243.09765625 C-275.74630922 243.07457751 -278.87303926 243.04204208 -282 243 C-280.37246476 238.61271103 -278.14434194 235.53277354 -275.0625 232.0625 C-271.07576456 227.46931671 -267.22427931 222.80848672 -263.5 218 C-259.50009086 212.85055268 -255.36605459 207.84644443 -251.125 202.89453125 C-247.81208248 199.00750019 -244.63363444 195.03253669 -241.5 191 C-237.44896275 185.78935875 -233.27619002 180.70778138 -228.98876953 175.69018555 C-226.06705919 172.27001657 -223.20443373 168.80999447 -220.375 165.3125 C-216.74580836 160.85377884 -212.96871044 156.56202776 -209.09765625 152.3125 C-207.30492554 150.33615628 -205.55204773 148.3354327 -203.8125 146.3125 C-195.43226188 136.72135592 -186.61168606 127.52159609 -177.625 118.5 C-176.98377197 117.85417969 -176.34254395 117.20835937 -175.68188477 116.54296875 C-171.87292546 112.74629165 -167.94500089 109.14470397 -163.875 105.62988281 C-161.255862 103.35314254 -158.72692298 100.9903926 -156.1875 98.625 C-150.6433473 93.50994773 -144.89020796 88.71372462 -139 84 C-137.86916043 83.07759625 -136.73898485 82.15437804 -135.609375 81.23046875 C-111.62754022 61.70411604 -85.74429339 45.37560283 -58.69384766 30.48535156 C-54.58256259 28.21844398 -50.47832299 25.93889999 -46.37426758 23.65893555 C-44.08187254 22.38563607 -41.78873948 21.11366439 -39.49487305 19.84301758 C-33.59406012 16.57078254 -27.71011419 13.27310696 -21.8515625 9.92578125 C-20.71082275 9.27706055 -19.57008301 8.62833984 -18.39477539 7.95996094 C-16.2154316 6.71900117 -14.03995438 5.47121989 -11.86889648 4.21582031 C-10.40432007 3.3838916 -10.40432007 3.3838916 -8.91015625 2.53515625 C-7.62830444 1.79857788 -7.62830444 1.79857788 -6.32055664 1.04711914 C-4 0 -4 0 0 0 Z " fill="#3399FF" transform="translate(707,544)"/>
<path d="M0 0 C4.137731 0.5279664 7.17860492 1.37816133 10.7734375 3.484375 C12.11535156 4.2587793 12.11535156 4.2587793 13.484375 5.04882812 C14.91523438 5.8909082 14.91523438 5.8909082 16.375 6.75 C18.44417929 7.94467321 20.51452885 9.13732139 22.5859375 10.328125 C23.64780273 10.93978516 24.70966797 11.55144531 25.80371094 12.18164062 C30.82442098 15.03790769 35.91040984 17.76898005 41 20.5 C72.06431643 37.24846371 102.36437682 54.92387115 130 77 C130.63921387 77.50917969 131.27842773 78.01835938 131.93701172 78.54296875 C139.42158198 84.52068576 146.80202614 90.56528844 153.86328125 97.04296875 C155.77630304 98.79511485 157.72015283 100.49700766 159.6875 102.1875 C169.27864408 110.56773812 178.47840391 119.38831394 187.5 128.375 C188.14582031 129.01622803 188.79164063 129.65745605 189.45703125 130.31811523 C193.25370835 134.12707454 196.85529603 138.05499911 200.37011719 142.125 C202.64685746 144.744138 205.0096074 147.27307702 207.375 149.8125 C211.6655487 154.45691597 215.72872414 159.23758799 219.6953125 164.1640625 C222.20794135 167.25587359 224.78640065 170.28443865 227.375 173.3125 C231.67970003 178.36195522 235.80349021 183.52997986 239.87451172 188.76879883 C242.99106126 192.76211994 246.20528622 196.65275658 249.5 200.5 C253.68458515 205.38928733 257.70237496 210.38195781 261.64428711 215.46850586 C264.28329 218.85922757 266.9768956 222.19291104 269.734375 225.48828125 C270.36947998 226.24850586 271.00458496 227.00873047 271.65893555 227.79199219 C272.90234789 229.27509272 274.1509973 230.75382257 275.40551758 232.22753906 C276.25859497 233.24605957 276.25859497 233.24605957 277.12890625 234.28515625 C277.63494385 234.88207275 278.14098145 235.47898926 278.66235352 236.09399414 C280.20130007 238.28683147 281.04049217 240.50712015 282 243 C259.03935433 243.77482691 236.71489021 241.6698039 213.93200684 239.06109619 C210.26645151 238.64559703 206.59914403 238.24696703 202.9317112 237.84843731 C153.32073784 232.44807133 102.30239778 225.64129082 63 192 C61.77023438 190.95392578 61.77023438 190.95392578 60.515625 189.88671875 C50.09962109 180.78080229 41.38572668 170.7037853 34 159 C33.62488281 158.40622559 33.24976563 157.81245117 32.86328125 157.20068359 C15.97584895 129.97474219 10.65029142 98.50299883 5.84765625 67.33813477 C5.36963894 64.2405761 4.87694164 61.14595323 4.37011719 58.05297852 C1.17177507 38.52093175 -0.84414978 19.8473393 0 0 Z " fill="#3399FF" transform="translate(0,544)"/>
<path d="M0 0 C2.31 0 4.62 0 7 0 C7.22550537 1.28293945 7.22550537 1.28293945 7.45556641 2.59179688 C13.21890416 34.95012857 23.45877907 69.22942783 50.546875 90.60546875 C52 92 52 92 53 95 C51.91796875 96.65625 51.91796875 96.65625 50.1875 98.5 C49.54167969 99.20382813 48.89585937 99.90765625 48.23046875 100.6328125 C47.12638672 101.80457031 47.12638672 101.80457031 46 103 C39.74786593 109.68090882 33.95093921 116.29068037 29 124 C28.43796875 124.84304687 27.8759375 125.68609375 27.296875 126.5546875 C16.39135419 143.89544806 10.73063695 164.70577694 8.0378418 184.83251953 C7.20619315 190.79380685 7.20619315 190.79380685 5 193 C2.875 192.625 2.875 192.625 1 192 C-0.32368891 187.72303878 -1.25122602 183.65808454 -1.8347168 179.20458984 C-5.80673622 149.89382581 -18.87147285 123.99168582 -39.35400391 102.97241211 C-39.92812012 102.38081299 -40.50223633 101.78921387 -41.09375 101.1796875 C-41.60615234 100.66132324 -42.11855469 100.14295898 -42.64648438 99.60888672 C-44.12669699 97.84939878 -45.05169676 96.0872856 -46 94 C-42.48839116 89.81261764 -38.86610885 85.86610885 -35 82 C-13.24075334 58.72266636 -5.09228963 30.69727881 0 0 Z " fill="#3399FF" transform="translate(350,0)"/>
<path d="M0 0 C8.26017648 4.36848647 13.36553073 11.02919365 16.81640625 19.57421875 C18.72188442 29.96773603 17.98624276 39.67447395 11.9609375 48.61328125 C6.57621588 55.19323856 -0.05091643 59.80131792 -8.49609375 61.32421875 C-19.51691101 62.26431471 -27.69478193 60.74630643 -36.30859375 53.63671875 C-42.28700931 47.97574118 -46.10030524 41.47595774 -46.734375 33.22265625 C-46.97915337 21.60212506 -44.8488696 13.84838546 -36.7890625 5.3046875 C-26.36406088 -3.69953025 -12.57845359 -5.21813577 0 0 Z " fill="#3399FF" transform="translate(368.49609375,716.67578125)"/>
</svg>
